<svg width="33" height="33" viewBox="0 0 33 33" fill="none" xmlns="http://www.w3.org/2000/svg">
<g filter="url(#filter0_d)">
<circle cx="16.5" cy="12.5" r="12.5" fill="white"/>
</g>
<g clip-path="url(#clip0)">
<path d="M14.753 17.9993C14.4768 17.9993 14.2076 17.8842 14.0118 17.6727L10.323 13.7722C9.90688 13.3455 9.89289 12.6403 10.295 12.1987C10.6971 11.7571 11.3614 11.7422 11.7775 12.169C11.7845 12.1764 11.795 12.1876 11.802 12.195L14.746 15.3087L22.1936 7.34073C22.5957 6.89538 23.26 6.88054 23.6761 7.30733C24.0957 7.73412 24.1097 8.43924 23.7076 8.88087C23.7006 8.8883 23.6901 8.89943 23.6831 8.90685L15.4943 17.669C15.302 17.8805 15.0327 17.9993 14.753 17.9993Z" fill="#69C70B"/>
</g>
<defs>
<filter id="filter0_d" x="0" y="0" width="33" height="33" filterUnits="userSpaceOnUse" color-interpolation-filters="sRGB">
<feFlood flood-opacity="0" result="BackgroundImageFix"/>
<feColorMatrix in="SourceAlpha" type="matrix" values="0 0 0 0 0 0 0 0 0 0 0 0 0 0 0 0 0 0 127 0"/>
<feOffset dy="4"/>
<feGaussianBlur stdDeviation="2"/>
<feColorMatrix type="matrix" values="0 0 0 0 0 0 0 0 0 0 0 0 0 0 0 0 0 0 0.35 0"/>
<feBlend mode="normal" in2="BackgroundImageFix" result="effect1_dropShadow"/>
<feBlend mode="normal" in="SourceGraphic" in2="effect1_dropShadow" result="shape"/>
</filter>
<clipPath id="clip0">
<rect width="14" height="11" fill="white" transform="translate(10 7)"/>
</clipPath>
</defs>
</svg>
