<svg width="40" height="40" viewBox="0 0 40 40" fill="none" xmlns="http://www.w3.org/2000/svg">
<g opacity="0.7">
<g opacity="0.7">
<path opacity="0.7" d="M20.0106 39.5662C30.8109 39.5662 39.5662 30.8109 39.5662 20.0106C39.5662 9.2104 30.8109 0.455078 20.0106 0.455078C9.2104 0.455078 0.455078 9.2104 0.455078 20.0106C0.455078 30.8109 9.2104 39.5662 20.0106 39.5662Z" fill="#C2C9CF"/>
</g>
</g>
<path d="M29.456 32.7334L25.2782 31.7556C25.1893 31.7556 23.6782 30.5111 23.6782 30.5111V28.3778C23.6782 28.3778 23.856 28.2889 26.0782 27.4889C27.5893 26.9556 28.656 25.4445 28.4782 23.0445C29.5449 22.9556 30.3449 21.8889 30.256 20.8222C30.256 20.4667 30.0782 20.1111 29.8115 19.7556C31.856 10.6 30.1671 8.55558 30.1671 8.55558L30.8782 5.88892C24.3004 6.15558 21.2782 7.22225 21.2782 7.22225L22.4337 5.88892C19.9449 5.88892 14.0782 6.42225 12.3004 9.1778C8.30041 9.80003 9.1893 13.7111 10.4337 19.7556C9.72263 20.6445 9.81152 21.8889 10.6115 22.6C10.8782 22.8667 11.3226 23.0445 11.6782 23.0445C11.5893 25.5334 12.656 26.8667 14.0782 27.4L16.4782 28.2889V30.4223C16.4782 30.4223 15.056 31.6667 14.9671 31.6667L10.7893 32.6445C9.81152 33 9.10041 33.9778 9.01152 35.0445L8.83374 36.2C15.6782 40.6445 24.4782 40.7334 31.4115 36.4667L31.2337 35.2222C31.1448 34.0667 30.4337 33.1778 29.456 32.7334Z" fill="#8593A0"/>
<path d="M20 40C8.97778 40 0 31.0222 0 20C0 8.97778 8.97778 0 20 0C31.0222 0 40 8.97778 40 20C40 31.0222 31.0222 40 20 40ZM20 0.888889C9.42222 0.888889 0.888889 9.42222 0.888889 20C0.888889 30.5778 9.42222 39.1111 20 39.1111C30.5778 39.1111 39.1111 30.5778 39.1111 20C39.1111 9.42222 30.5778 0.888889 20 0.888889Z" fill="#8593A0"/>
</svg>
