<svg width="22" height="25" viewBox="0 0 22 25" fill="none" xmlns="http://www.w3.org/2000/svg">
<g clip-path="url(#clip0)">
<path d="M18.075 4.30053C21.9201 6.89668 23.3316 12.0409 20.6546 16.6563C17.9776 21.2717 9.65464 26.8967 5.42012 24.3486C1.18561 21.8005 1.13694 12.0409 3.61924 7.61783C6.10154 3.19476 12.429 0.454373 18.075 4.30053Z" fill="#C2C9CF"/>
<g opacity="0.59">
<g opacity="0.59">
<path opacity="0.59" d="M0.438514 13.2212C0.389841 13.3174 0.292496 13.3654 0.195151 13.3174C0.146479 13.2693 0.0978056 13.2212 0.0978056 13.1731C-0.340248 9.23082 1.31462 4.08659 6.18188 1.58659C11.0491 -0.913412 15.4297 -0.0480271 17.7173 1.87505C17.7173 1.92313 17.7173 2.01928 17.6686 2.11543C15.4783 5.0962 12.2659 7.16351 8.56683 7.83659C4.13763 8.55774 1.41197 11.202 0.438514 13.2212Z" fill="#8593A0"/>
</g>
</g>
</g>
<defs>
<clipPath id="clip0">
<rect width="22" height="25" fill="white"/>
</clipPath>
</defs>
</svg>
