<svg width="22" height="24" viewBox="0 0 22 24" fill="none" xmlns="http://www.w3.org/2000/svg">
<g clip-path="url(#clip0)">
<path d="M0.9 7.2002H20.9C21.4 7.2002 21.8 7.6002 21.8 8.1002C21.8 8.6002 21.4 9.0002 20.9 9.0002H0.9C0.4 8.9002 0 8.5002 0 8.0002C0 7.5002 0.4 7.2002 0.9 7.2002Z" fill="#145388"/>
<path d="M0.9 21.7002H20.9C21.4 21.7002 21.8 22.1002 21.8 22.6002C21.8 23.1002 21.4 23.5002 20.9 23.5002H0.9C0.4 23.4002 0 23.0002 0 22.5002C0 22.0002 0.4 21.7002 0.9 21.7002Z" fill="#145388"/>
<path d="M21.4 6.1L11 0C10.9 0 10.8 0 10.7 0L0.299998 6.1C0.199998 6.2 0.0999983 6.4 0.199998 6.6C0.299998 6.7 0.399998 6.8 0.499998 6.8H21.2C21.4 6.8 21.5 6.7 21.5 6.5C21.6 6.3 21.5 6.2 21.4 6.1ZM16.9 5.3C16.8 5.4 16.7 5.5 16.6 5.5H5.2C5 5.5 4.9 5.3 4.9 5.1C4.9 5 4.9 4.9 5 4.9L10.7 1.6C10.8 1.5 10.9 1.5 11 1.6L16.7 4.9C16.9 4.9 17 5.2 16.9 5.3Z" fill="#145388"/>
<path d="M6.1 10.9001C6.3 10.9001 6.4 10.8001 6.4 10.6001V9.6001H2.3V10.6001C2.3 10.8001 2.4 10.9001 2.6 10.9001H2.7V19.8001H2.5C2.3 19.8001 2.2 19.9001 2.2 20.1001V21.1001H6.3V20.1001C6.3 19.9001 6.2 19.8001 6 19.8001L6.1 10.9001Z" fill="#145388"/>
<path d="M12.8 10.9001C13 10.9001 13.1 10.8001 13.1 10.6001V9.6001H8.99999V10.6001C8.99999 10.8001 9.09999 10.9001 9.29999 10.9001H9.39999V19.8001H9.19999C8.99999 19.8001 8.89999 19.9001 8.89999 20.1001V21.1001H13V20.1001C13 19.9001 12.9 19.8001 12.7 19.8001H12.6L12.8 10.9001Z" fill="#145388"/>
<path d="M19.5 10.9001C19.7 10.9001 19.8 10.8001 19.8 10.6001V9.6001H15.7V10.6001C15.7 10.8001 15.8 10.9001 16 10.9001V19.8001H15.9C15.7 19.8001 15.6 19.9001 15.6 20.1001V21.1001H19.7V20.1001C19.7 19.9001 19.6 19.8001 19.4 19.8001H19.3L19.5 10.9001Z" fill="#145388"/>
</g>
<defs>
<clipPath id="clip0">
<rect width="21.8" height="23.4" fill="white"/>
</clipPath>
</defs>
</svg>
