<svg id="Capa_1" data-name="Capa 1" xmlns="http://www.w3.org/2000/svg" viewBox="0 0 106.34 122.15"><defs><style>.cls-1{fill:#f4b437;}.cls-2{fill:#2588c9;}</style></defs><path class="cls-1" d="M98.16,24c18.47,12.75,25.22,37.78,12.41,60.35s-53,50-73.5,37.65S16.42,61.73,28.32,40.1,70.94,5.21,98.16,24Z" transform="translate(-10.83 -2.93)"/><path class="cls-2" d="M12.9,67.5a.93.93,0,0,1-1.77-.29c-2-19.17,5.92-44.39,29.3-56.7s44.69-8,55.63,1.43a.93.93,0,0,1,.16,1.25c-6.7,9.53-21.78,24.21-43.88,28C30.92,44.8,17.59,57.58,12.9,67.5Z" transform="translate(-10.83 -2.93)"/></svg>