<?xml version="1.0" encoding="utf-8"?>
<!-- Generator: Adobe Illustrator 24.1.3, SVG Export Plug-In . SVG Version: 6.00 Build 0)  -->
<svg version="1.1" id="Capa_1" xmlns="http://www.w3.org/2000/svg" xmlns:xlink="http://www.w3.org/1999/xlink" x="0px" y="0px"
	 viewBox="0 0 218 61.2" style="enable-background:new 0 0 218 61.2;" xml:space="preserve">
<style type="text/css">
	.st0{fill:url(#SVGID_1_);}
	.st1{fill:url(#SVGID_2_);}
	.st2{fill:url(#SVGID_3_);}
	.st3{fill:url(#SVGID_4_);}
	.st4{fill:url(#SVGID_5_);}
	.st5{opacity:0.75;fill:url(#SVGID_6_);enable-background:new    ;}
	.st6{fill:#196FB6;}
</style>
<g>
	
		<linearGradient id="SVGID_1_" gradientUnits="userSpaceOnUse" x1="220.9856" y1="1446.9609" x2="235.4456" y2="1475.4908" gradientTransform="matrix(0.71 -0.71 -0.71 -0.7 901.07 1214.27)">
		<stop  offset="0" style="stop-color:#196FB6"/>
		<stop  offset="0.19" style="stop-color:#1C76BB"/>
		<stop  offset="0.47" style="stop-color:#2389C9"/>
		<stop  offset="0.8" style="stop-color:#2EA8DF"/>
		<stop  offset="1" style="stop-color:#37BFF0"/>
	</linearGradient>
	<path class="st0" d="M6.4,33.9c-0.1,0.2-0.3,0.3-0.5,0.2c-0.1,0-0.2-0.2-0.3-0.3c-1.5-8,1-19,10.5-25.1s18.7-5,23.7-1.4
		c0.2,0.1,0.2,0.3,0.1,0.5c-3.9,6.6-10.3,11.4-17.7,13.5C13.2,23.6,8,29.5,6.4,33.9z"/>
	
		<linearGradient id="SVGID_2_" gradientUnits="userSpaceOnUse" x1="205.4844" y1="1444.7677" x2="199.0144" y2="1455.6577" gradientTransform="matrix(0.73 -0.69 -0.69 -0.73 882.9901 1232.12)">
		<stop  offset="0" style="stop-color:#F59B1D"/>
		<stop  offset="0.24" style="stop-color:#F6A21A"/>
		<stop  offset="0.59" style="stop-color:#FAB512"/>
		<stop  offset="0.99" style="stop-color:#FFD405"/>
	</linearGradient>
	<path class="st1" d="M41,12.2c8.2,4.7,12,15.1,7.4,25.1S27.7,60.5,18.5,56S7.6,31.2,11.9,21.6S28.7,5.2,41,12.2z"/>
	
		<linearGradient id="SVGID_3_" gradientUnits="userSpaceOnUse" x1="204.3306" y1="1433.2349" x2="212.3506" y2="1472.3549" gradientTransform="matrix(0.71 -0.68 -0.68 -0.72 875.46 1230.5599)">
		<stop  offset="0" style="stop-color:#F59B1D"/>
		<stop  offset="0.24" style="stop-color:#F5A124"/>
		<stop  offset="0.58" style="stop-color:#F5B237"/>
		<stop  offset="0.98" style="stop-color:#F4CE56"/>
		<stop  offset="1" style="stop-color:#F4D058"/>
	</linearGradient>
	<path class="st2" d="M40.5,12.4c8.1,4.7,11.9,15,7.4,24.9S27.7,60.1,18.7,55.6S7.9,31,12.1,21.5S28.5,5.4,40.5,12.4z"/>
	
		<linearGradient id="SVGID_4_" gradientUnits="userSpaceOnUse" x1="211.4607" y1="1452.1428" x2="206.9207" y2="1481.0728" gradientTransform="matrix(0.726 -0.6877 -0.6877 -0.726 882.0939 1231.194)">
		<stop  offset="0" style="stop-color:#196FB6"/>
		<stop  offset="0.19" style="stop-color:#1C76BB"/>
		<stop  offset="0.47" style="stop-color:#2389C9"/>
		<stop  offset="0.8" style="stop-color:#2EA8DF"/>
		<stop  offset="1" style="stop-color:#37BFF0"/>
	</linearGradient>
	<path class="st3" d="M6.3,33.8C6.2,34,6,34.1,5.8,34c-0.1,0-0.2-0.2-0.2-0.3C4,25.6,6.5,14.6,16,8.6s18.7-5,23.7-1.4
		c0.2,0.1,0.2,0.4,0.1,0.5c-3.9,6.6-10.3,11.4-17.6,13.4C13.2,23.5,8,29.4,6.3,33.8z"/>
	
		<linearGradient id="SVGID_5_" gradientUnits="userSpaceOnUse" x1="-557.4935" y1="1459.9335" x2="-556.2835" y2="1475.1735" gradientTransform="matrix(-0.73 0.69 -0.69 -0.73 628.26 1473.1899)">
		<stop  offset="0" style="stop-color:#F59B1D"/>
		<stop  offset="0.24" style="stop-color:#F5A124"/>
		<stop  offset="0.58" style="stop-color:#F5B237"/>
		<stop  offset="0.98" style="stop-color:#F4CE56"/>
		<stop  offset="1" style="stop-color:#F4D058"/>
	</linearGradient>
	<path class="st4" d="M37.3,10.6c-11-4.2-21.7,2.1-25.5,10.8c-0.8,1.9-1.4,4-1.7,6.1c3.2-3.1,7.2-5.4,11.6-6.5
		C28,19.4,33.4,15.7,37.3,10.6z"/>
	
		<linearGradient id="SVGID_6_" gradientUnits="userSpaceOnUse" x1="-551.9907" y1="1486.3003" x2="-555.7607" y2="1470.7804" gradientTransform="matrix(-0.73 0.69 -0.69 -0.73 628.26 1473.1899)">
		<stop  offset="0" style="stop-color:#90D3F3"/>
		<stop  offset="0.18" style="stop-color:#89D1F3"/>
		<stop  offset="0.44" style="stop-color:#76CDF2"/>
		<stop  offset="0.74" style="stop-color:#57C6F1"/>
		<stop  offset="1" style="stop-color:#37BFF0"/>
	</linearGradient>
	<path class="st5" d="M37.3,10.6c-11-4.2-21.7,2.1-25.5,10.8c-0.8,1.9-1.4,4-1.7,6.1c3.2-3.1,7.2-5.4,11.6-6.5
		C28,19.4,33.4,15.7,37.3,10.6z"/>
	<path class="st6" d="M196.3,16.4c-6.9,0-12.6,5.6-12.6,12.6c0,6.9,5.6,12.6,12.6,12.6s12.6-5.6,12.6-12.6c0,0,0,0,0,0
		C208.8,22,203.2,16.4,196.3,16.4C196.3,16.4,196.3,16.4,196.3,16.4z M196.3,36.3c-4.1,0-7.4-3.3-7.4-7.4s3.3-7.4,7.4-7.4
		c4.1,0,7.4,3.3,7.4,7.4c0,0,0,0,0,0C203.6,33,200.3,36.3,196.3,36.3z"/>
	<path class="st6" d="M114.1,16.4c-6.9,0-12.6,5.6-12.6,12.6c0,6.9,5.6,12.6,12.6,12.6c2.7,0,5.2-0.8,7.4-2.4v2.4h5.2V28.9
		C126.6,22,121,16.4,114.1,16.4C114.1,16.4,114.1,16.4,114.1,16.4z M114.1,36.3c-4.1,0-7.4-3.3-7.4-7.4c0-4.1,3.3-7.4,7.4-7.4
		s7.4,3.3,7.4,7.4c0,0,0,0,0,0C121.4,33,118.1,36.3,114.1,36.3z"/>
	<path class="st6" d="M141.1,16.4c-6.3,0-11.4,5.1-11.4,11.3v0v13.8h5.2V27.7c-0.1-3.4,2.5-6.2,5.9-6.4c3.4-0.1,6.2,2.5,6.4,5.9
		c0,0.2,0,0.3,0,0.5v13.8h5.2V27.7C152.4,21.4,147.3,16.4,141.1,16.4L141.1,16.4z"/>
	<path class="st6" d="M88.3,16.4c-2.9,0-5.6,1.2-7.5,3.3C77,15.5,70.6,15.2,66.5,19c-2.1,1.9-3.3,4.7-3.3,7.5v15h5.2v-15
		c-0.1-2.7,2-5,4.7-5.1c2.7-0.1,5,2,5.1,4.7c0,0.1,0,0.3,0,0.4v15h5.2v-15c-0.1-2.7,2-5,4.7-5.1c2.7-0.1,5,2,5.1,4.7
		c0,0.1,0,0.3,0,0.4v15h5.2v-15C98.4,20.9,93.9,16.4,88.3,16.4L88.3,16.4z"/>
	<path class="st6" d="M168,16.4c-6.9,0-12.6,5.6-12.6,12.6S161,41.5,168,41.5c2.7,0,5.2-0.8,7.4-2.4v2.4c-0.1,4.1-3.6,7.2-7.6,7.1
		c-3.9-0.1-7-3.2-7.1-7.1h-5.2c-0.2,6.9,5.3,12.7,12.2,12.9c6.9,0.2,12.7-5.3,12.9-12.2c0-0.2,0-0.5,0-0.7V28.9
		C180.6,22,175,16.4,168,16.4C168,16.4,168,16.4,168,16.4z M168,36.3c-4.1,0-7.4-3.3-7.4-7.4c0-4.1,3.3-7.4,7.4-7.4
		c4.1,0,7.4,3.3,7.4,7.4c0,0,0,0,0,0C175.4,33,172.1,36.3,168,36.3z"/>
</g>
</svg>
