<svg width="21" height="25" viewBox="0 0 21 25" fill="none" xmlns="http://www.w3.org/2000/svg">
<g clip-path="url(#clip0)">
<path d="M7.45902 4.70469C7.45902 3.90141 8.14755 3.32764 8.95082 3.32764C8.14755 3.32764 7.45902 4.01616 7.45902 4.70469C7.34427 4.70469 7.34427 4.70469 7.45902 4.70469V4.81944C7.45902 5.50796 8.03279 6.19649 8.72132 6.19649C7.91804 6.19649 7.34427 5.62272 7.45902 4.70469Z" fill="#145388"/>
<path d="M13.8852 6.42627C13.8852 6.65578 13.7705 6.77053 13.541 6.77053C13.3115 6.77053 13.1967 6.65578 13.1967 6.42627C13.1967 6.65578 13.3115 6.77053 13.541 6.77053C13.7705 6.77053 13.8852 6.54102 13.8852 6.42627Z" fill="#145388"/>
<path d="M10.3279 6.31114C9.86885 6.6554 9.40983 6.77016 8.83606 6.77016C9.40983 6.77016 9.86885 6.6554 10.3279 6.31114V4.81934V6.31114Z" fill="#145388"/>
<path d="M11.0164 5.27832C11.4754 5.62258 12.164 5.50783 12.3935 5.73734C12.164 5.50783 11.3607 5.62258 11.0164 5.27832Z" fill="#145388"/>
<path d="M8.83608 2.98334C9.40985 2.98334 9.86886 3.21285 10.3279 3.55712L9.98362 3.90138L10.3279 3.55712C9.98362 3.0981 9.40985 2.86859 8.83608 2.98334H8.72132H8.60657H8.72132H8.83608Z" fill="#145388"/>
<path d="M12.7377 5.39307C12.9672 5.50782 13.082 5.73733 12.9672 5.96684C12.9672 6.42585 12.5082 6.77012 11.7049 6.77012C11.2459 6.77012 10.9016 6.65536 10.5574 6.42585C10.9016 6.65536 11.3607 6.77012 11.7049 6.77012C12.5082 6.77012 12.9672 6.42585 12.9672 5.96684C12.9672 5.73733 12.8525 5.50782 12.7377 5.39307Z" fill="#145388"/>
<path d="M11.8197 4.36037C11.3607 4.36037 11.1312 4.47512 11.1312 4.70463C11.1312 4.81938 11.1312 4.81938 11.2459 4.93414C11.2459 4.93414 11.1312 4.81938 11.1312 4.70463C11.2459 4.47512 11.4754 4.36037 11.8197 4.36037C12.164 4.36037 12.3935 4.47512 12.623 4.58988L12.8525 4.13086L12.7377 4.58988C12.3935 4.36037 12.164 4.36037 11.8197 4.36037Z" fill="#145388"/>
<path d="M7.34427 4.81941V4.70466C7.34427 3.90138 8.03279 3.32761 8.83607 3.32761C9.29509 3.32761 9.63935 3.44236 9.86886 3.78662L10.3279 3.55712C9.98361 3.0981 9.40984 2.86859 8.83607 2.98334H8.72132H8.60657C7.68853 2.98334 6.88525 3.90138 6.88525 4.81941V4.93416C6.88525 5.96695 7.80329 6.77023 8.83607 6.77023C9.29509 6.77023 9.86886 6.65548 10.2131 6.31121V4.81941H9.75411V6.08171C9.5246 6.19646 9.18034 6.31121 8.83607 6.31121H8.72132C7.91804 6.19646 7.34427 5.62269 7.34427 4.81941Z" fill="#145388"/>
<path d="M8.83606 3.44238C9.29508 3.44238 9.63934 3.55714 9.86885 3.9014C9.63934 3.55714 9.29508 3.44238 8.83606 3.44238Z" fill="#145388"/>
<path d="M9.75409 6.08163V4.81934V6.08163C9.52458 6.19639 9.18032 6.31114 8.83606 6.31114C9.18032 6.31114 9.52458 6.19639 9.75409 6.08163Z" fill="#145388"/>
<path d="M6.88525 4.93423V4.81947C6.88525 3.78669 7.68853 2.98341 8.60657 2.86865C7.68853 2.98341 6.88525 3.90144 6.88525 4.81947V4.93423C6.88525 5.96701 7.80329 6.77029 8.83607 6.77029C7.80329 6.77029 6.88525 5.96701 6.88525 4.93423Z" fill="#145388"/>
<path d="M12.9672 5.96694C12.9672 5.73743 12.8525 5.50792 12.7377 5.39317C12.3934 5.27842 11.9344 5.16366 11.4754 5.04891C11.4754 5.04891 11.3607 5.04891 11.3607 4.93415C11.3607 4.93415 11.2459 4.8194 11.2459 4.70465C11.2459 4.47514 11.4754 4.36038 11.9344 4.36038C12.2787 4.36038 12.5082 4.47514 12.7377 4.58989L12.9672 4.13088C12.6229 4.01612 12.2787 3.90137 11.9344 3.90137C11.2459 3.90137 10.7869 4.24563 10.7869 4.70465C10.7869 4.93415 10.9016 5.16366 11.0164 5.27842C11.4754 5.62268 12.1639 5.50792 12.3934 5.73743C12.3934 5.73743 12.5082 5.85219 12.5082 5.96694C12.5082 6.19645 12.2787 6.3112 11.8197 6.3112C11.4754 6.3112 11.1311 6.19645 10.7869 5.96694L10.5574 6.42596C10.9016 6.65547 11.3607 6.77022 11.7049 6.77022C12.5082 6.77022 12.9672 6.42596 12.9672 5.96694Z" fill="#145388"/>
<path d="M11.4754 4.93409C11.4754 4.93409 11.3607 4.93409 11.3607 4.81934C11.3607 4.93409 11.3607 4.93409 11.4754 4.93409Z" fill="#145388"/>
<path d="M11.4754 5.04883C11.9344 5.16358 12.2787 5.27834 12.7377 5.39309C12.2787 5.16358 11.9344 5.04883 11.4754 5.04883Z" fill="#145388"/>
<path d="M11.8197 6.31108C12.2787 6.31108 12.5082 6.19632 12.5082 5.96681C12.5082 5.85206 12.5082 5.85206 12.3934 5.7373C12.3934 5.7373 12.5082 5.85206 12.5082 5.96681C12.5082 6.19632 12.2787 6.31108 11.8197 6.31108C11.4754 6.31108 11.1311 6.19632 10.7869 5.96681L10.5574 6.42583L10.7869 5.96681C11.1311 6.19632 11.4754 6.31108 11.8197 6.31108Z" fill="#145388"/>
<path d="M11.9344 3.90137C12.2787 3.90137 12.623 4.01612 12.9672 4.13088C12.623 3.90137 12.2787 3.90137 11.9344 3.90137C11.2459 3.90137 10.7869 4.24563 10.7869 4.70465C10.7869 4.93415 10.9017 5.16366 11.0164 5.27842C10.7869 5.16366 10.6721 4.93415 10.6721 4.70465C10.6721 4.24563 11.1312 3.90137 11.9344 3.90137Z" fill="#145388"/>
<path d="M13.541 6.77007C13.7705 6.77007 13.8852 6.65531 13.8852 6.42581C13.8852 6.1963 13.7705 6.08154 13.541 6.08154C13.3115 6.08154 13.1967 6.1963 13.1967 6.42581C13.1967 6.54056 13.4262 6.77007 13.541 6.77007Z" fill="#145388"/>
<path d="M13.541 5.9668C13.7705 5.9668 13.8852 6.08155 13.8852 6.31106C13.8852 6.19631 13.7705 5.9668 13.541 5.9668C13.3115 5.9668 13.1967 6.08155 13.1967 6.31106C13.1967 6.19631 13.3115 5.9668 13.541 5.9668Z" fill="#145388"/>
<path d="M19.2787 8.83607H16.9836V1.37705C16.9836 0.573771 16.4098 0 15.6066 0H5.5082C4.70492 0 4.13115 0.573771 4.13115 1.37705V8.83607H0V22.3771C0 23.2951 0.803279 24.0984 1.72131 24.0984H19.1639C20.082 24.0984 20.8852 23.2951 20.8852 22.3771V10.5574C21 9.63934 20.1967 8.83607 19.2787 8.83607ZM5.5082 1.37705H15.6066V8.83607H5.5082V1.37705ZM19.623 14H16.1803C15.7213 14 15.2623 14.459 15.2623 14.918V18.0164C15.2623 18.4754 15.7213 18.9344 16.1803 18.9344H19.623V22.3771C19.623 22.6066 19.5082 22.7213 19.2787 22.7213H1.72131C1.4918 22.7213 1.37705 22.6066 1.37705 22.3771V10.2131H19.1639C19.3934 10.2131 19.5082 10.3279 19.5082 10.5574V14H19.623ZM19.5082 15.0328V17.7869H16.2951V15.0328H19.5082Z" fill="#145388"/>
</g>
<defs>
<clipPath id="clip0">
<rect width="21" height="24.0984" fill="white"/>
</clipPath>
</defs>
</svg>
