<svg width="19" height="22" viewBox="0 0 19 22" fill="none" xmlns="http://www.w3.org/2000/svg">
<g clip-path="url(#clip0)">
<path d="M7.7 0.7C7.7 1 7.9 1.2 8.2 1.2L10.3 1.1C10.4 1.1 10.5 1.2 10.5 1.3V1.4L6.9 6.6C6.7 6.9 6.8 7.3 7 7.4C7.3 7.6 7.6 7.5 7.8 7.2L11.4 2C11.5 1.9 11.6 1.9 11.7 2L11.8 2.1L12.5 4.1C12.6 4.4 12.9 4.5 13.1 4.4C13.4 4.3 13.5 4 13.4 3.8L12.3 0.4C12.3 0.3 12.2 0.2 12.1 0.1C12 0 11.8 0 11.7 0L8.2 0.2C7.9 0.2 7.7 0.4 7.7 0.7Z" fill="#145388"/>
<path d="M16.6 8.3999C16.5 8.3999 16.4 8.2999 16.4 8.1999V6.7999C16.4 5.9999 15.8 5.3999 15 5.3999H13.1C12.8 5.3999 12.5 5.6999 12.5 5.9999C12.5 6.2999 12.8 6.5999 13.1 6.5999H15C15.1 6.5999 15.2 6.6999 15.2 6.7999V8.1999C15.2 8.2999 15.1 8.3999 15 8.3999H2.1C1.7 8.3999 1.3 8.0999 1.2 7.5999V7.3999C1.2 6.9999 1.6 6.5999 2.1 6.5999H4C4.3 6.5999 4.6 6.2999 4.6 5.9999C4.6 5.6999 4.3 5.3999 4 5.3999H2.1C1 5.4999 0.1 6.2999 0 7.2999V19.9999C0 20.8999 0.8 21.6999 1.7 21.6999H16.5C17.4 21.6999 18.2 20.8999 18.2 19.9999V10.0999C18.3 9.1999 17.5 8.3999 16.6 8.3999ZM16.9 12.8999H14.2C13.7 12.8999 13.2 13.2999 13.2 13.8999V16.1999C13.2 16.6999 13.6 17.1999 14.2 17.1999H16.9C17 17.1999 17.1 17.2999 17.1 17.3999V20.2999C17.1 20.4999 17 20.5999 16.8 20.5999H1.8C1.5 20.5999 1.3 20.3999 1.3 20.0999V9.7999C1.3 9.6999 1.4 9.5999 1.5 9.5999H16.7C17 9.5999 17.2 9.7999 17.2 10.0999V12.6999C17.1 12.7999 17 12.8999 16.9 12.8999ZM17 13.9999V16.0999C17 16.1999 16.9 16.2999 16.8 16.2999H14.3C14.2 16.2999 14.1 16.1999 14.1 16.0999V13.9999C14.1 13.8999 14.2 13.7999 14.3 13.7999H16.8C16.9 13.7999 17 13.8999 17 13.9999Z" fill="#145388"/>
</g>
<defs>
<clipPath id="clip0">
<rect width="18.3" height="21.7" fill="white"/>
</clipPath>
</defs>
</svg>
