<svg width="17" height="21" viewBox="0 0 17 21" fill="none" xmlns="http://www.w3.org/2000/svg">
<g clip-path="url(#clip0)">
<path d="M5.20001 16.2996C5.20001 16.6996 4.80001 17.0996 4.40001 17.0996H3.90001C3.50001 17.0996 3.10001 16.7996 3.10001 16.2996V15.8996C3.10001 15.4996 3.50001 15.0996 3.90001 15.0996H4.40001C4.90001 15.0996 5.20001 15.3996 5.20001 15.8996V16.2996Z" fill="#145388"/>
<path d="M5.20001 12.5999C5.20001 13.0999 4.80001 13.3999 4.40001 13.3999H3.90001C3.50001 13.3999 3.10001 13.0999 3.10001 12.5999V12.1999C3.10001 11.9999 3.20001 11.7999 3.30001 11.5999C3.50001 11.3999 3.70001 11.3999 3.90001 11.3999H4.40001C4.60001 11.3999 4.80001 11.4999 5.00001 11.5999C5.20001 11.6999 5.20001 11.9999 5.20001 12.1999V12.5999Z" fill="#145388"/>
<path d="M5.20001 8.79961C5.20001 9.19961 4.80001 9.59961 4.40001 9.59961H3.90001C3.50001 9.59961 3.10001 9.29961 3.10001 8.79961V8.39961C3.10001 7.99961 3.50001 7.59961 3.90001 7.59961H4.40001C4.90001 7.59961 5.20001 7.89961 5.20001 8.39961V8.79961Z" fill="#145388"/>
<path d="M5.20001 4.9998C5.20001 5.3998 4.80001 5.7998 4.40001 5.7998H3.90001C3.40001 5.7998 3.10001 5.4998 3.10001 4.9998V4.5998C3.10001 4.1998 3.50001 3.7998 3.90001 3.7998H4.40001C4.90001 3.7998 5.20001 4.0998 5.20001 4.5998V4.9998Z" fill="#145388"/>
<path d="M13.3 16.4997H6.80002C6.60002 16.4997 6.40002 16.2997 6.40002 16.0997C6.40002 15.8997 6.60002 15.6997 6.80002 15.6997H13.3C13.5 15.6997 13.7 15.8997 13.7 16.0997C13.6 16.3997 13.5 16.4997 13.3 16.4997Z" fill="#145388"/>
<path d="M13.3 12.8H6.80002C6.60002 12.8 6.40002 12.6 6.40002 12.4C6.40002 12.2 6.60002 12 6.80002 12H13.3C13.5 12 13.7 12.2 13.7 12.4C13.6 12.6 13.5 12.8 13.3 12.8Z" fill="#145388"/>
<path d="M13.3 8.99971H6.79999C6.49999 8.99971 6.29999 8.79971 6.29999 8.59971C6.29999 8.39971 6.49999 8.19971 6.69999 8.19971H13.2C13.4 8.19971 13.6 8.39971 13.6 8.59971C13.6 8.79971 13.5 8.99971 13.3 8.99971Z" fill="#145388"/>
<path d="M13.3 5.1999H6.80002C6.60002 5.1999 6.40002 4.9999 6.40002 4.7999C6.40002 4.5999 6.60002 4.3999 6.80002 4.3999H13.3C13.5 4.3999 13.7 4.5999 13.7 4.7999C13.6 4.9999 13.5 5.1999 13.3 5.1999Z" fill="#145388"/>
<path d="M11.7 0H1.2C0.5 0 0 0.5 0 1.2V19.8C0 20.4 0.5 21 1.2 21H15.6C16.2 21 16.8 20.5 16.8 19.8V5C16.7 2.2 14.5 0 11.7 0ZM15.6 19.8H1.2V1.2H11.8C13.9 1.2 15.6 2.9 15.6 5V19.8ZM15.6 20.3V19.7V20.3Z" fill="#145388"/>
</g>
<defs>
<clipPath id="clip0">
<rect width="16.7" height="20.9" fill="white"/>
</clipPath>
</defs>
</svg>
