<svg width="19" height="20" viewBox="0 0 19 20" fill="none" xmlns="http://www.w3.org/2000/svg">
<g clip-path="url(#clip0)">
<path d="M5.36291 6.31579C7.14002 6.31579 8.58066 4.90195 8.58066 3.15789C8.58066 1.41384 7.14002 0 5.36291 0C3.5858 0 2.14517 1.41384 2.14517 3.15789C2.14517 4.90195 3.5858 6.31579 5.36291 6.31579Z" fill="#145388"/>
<path d="M13.9436 6.31579C15.7207 6.31579 17.1613 4.90195 17.1613 3.15789C17.1613 1.41384 15.7207 0 13.9436 0C12.1665 0 10.7258 1.41384 10.7258 3.15789C10.7258 4.90195 12.1665 6.31579 13.9436 6.31579Z" fill="#145388"/>
<path d="M17.2532 8.27049H16.9468C15.9661 8.27049 15.1694 9.05245 15.1694 10.0149V15.4284C15.1694 16.1803 14.5258 16.7818 13.729 16.6915C13.0548 16.6314 12.5645 16.0299 12.5645 15.3682V10.0149C12.5645 9.05245 11.7677 8.27049 10.7871 8.27049C10.6339 8.27049 10.4806 8.30057 10.3274 8.33064C10.1129 8.21034 9.80645 8.12012 9.5 8.12012H1.83871C0.827419 8.12012 0 8.93215 0 9.92463C0 10.9171 0.827419 11.7291 1.83871 11.7291H3.67742V18.0449C3.67742 19.0374 4.50484 19.8494 5.51613 19.8494C6.52742 19.8494 7.35484 19.0374 7.35484 18.0449V11.7291H9.04032V15.1276C9.04032 17.8946 11.4 20.1502 14.25 19.9998C16.9468 19.8795 19 17.5938 19 14.9773V10.0149C19 9.05245 18.2032 8.27049 17.2532 8.27049Z" fill="#145388"/>
</g>
<defs>
<clipPath id="clip0">
<rect width="19" height="20" fill="white"/>
</clipPath>
</defs>
</svg>
