<svg width="27" height="22" viewBox="0 0 27 22" fill="none" xmlns="http://www.w3.org/2000/svg">
<path d="M8.64466 13.97C8.01966 13.8119 7.42591 14.1598 7.26966 14.7607C7.20716 14.9821 7.17591 15.2351 7.17591 15.4881C7.20716 15.6779 7.20716 15.8676 7.23841 16.0258V16.0574C7.26966 16.1839 7.39466 16.2788 7.51966 16.2471C7.64466 16.2155 7.76966 16.089 7.73841 15.9625C7.73841 15.8992 7.73841 15.8676 7.73841 15.8044C7.80091 15.1718 7.86342 15.0137 8.42592 15.1086H8.45716C8.73841 15.1718 9.05091 14.9821 9.11341 14.6974C9.14466 14.3495 8.92591 14.0333 8.64466 13.97Z" fill="#145388"/>
<path d="M17.9884 14.7291C17.8322 14.1282 17.2072 13.7803 16.6134 13.97C16.3634 14.0333 16.2072 14.223 16.1447 14.4761C16.0822 14.8872 16.3947 15.1718 16.8634 15.1086C17.3009 15.0453 17.3322 15.077 17.4572 15.5197C17.4884 15.6462 17.4884 15.7727 17.4884 15.8992C17.4572 16.089 17.5197 16.2471 17.7072 16.2471C17.9259 16.2788 18.0197 16.1206 18.0197 15.9309C18.0509 15.7727 18.0509 15.6146 18.0509 15.4881C18.0822 15.2351 18.0509 14.9821 17.9884 14.7291Z" fill="#145388"/>
<path d="M8.61343 11.0604C9.28653 11.0604 9.83219 10.5082 9.83219 9.82696C9.83219 9.14575 9.28653 8.59352 8.61343 8.59352C7.94033 8.59352 7.39468 9.14575 7.39468 9.82696C7.39468 10.5082 7.94033 11.0604 8.61343 11.0604Z" fill="#145388"/>
<path d="M16.4884 8.5619C15.8009 8.5619 15.2697 9.13118 15.2697 9.79533C15.2697 10.4911 15.8322 11.0288 16.4884 11.0288C17.1759 11.0288 17.7072 10.4595 17.7072 9.79533C17.7384 9.13118 17.1759 8.5619 16.4884 8.5619Z" fill="#145388"/>
<path d="M25.9884 9.92184C25.4884 6.79081 23.0197 4.35557 22.1134 3.56491C22.7697 2.67937 23.1134 1.60407 23.0822 0.49714C23.0822 0.275755 22.9259 0.0859956 22.7072 0.0227426C22.4884 -0.0405105 22.2697 0.0543686 22.1759 0.212501C21.7384 0.845031 21.0509 1.22455 20.2697 1.22455C19.9884 1.22455 19.7384 1.19292 19.5197 1.19292C18.6759 1.1613 17.9884 1.12967 17.4884 1.63569C16.0822 0.750152 14.4572 0.307379 12.8009 0.307379C11.2697 0.307379 9.76966 0.686899 8.45716 1.44594C7.89467 1.19292 7.26967 1.09804 6.67592 1.22455C6.45717 1.22455 6.20717 1.25617 5.92592 1.25617H5.89467C5.14467 1.22455 4.45717 0.845031 4.01967 0.244127C3.89467 0.0543681 3.67592 -0.00888443 3.48842 0.0543686C3.26967 0.117622 3.14467 0.307381 3.11342 0.528766C3.05092 1.60407 3.39467 2.64774 4.01967 3.53328C3.20717 4.22907 0.582169 6.72756 0.0821691 9.89021C-0.0115809 10.2381 0.08217 10.6176 0.33217 10.9023C0.83217 11.345 1.48842 11.5348 2.14467 11.4715C2.83217 11.4399 3.51967 11.3767 4.17592 11.2185C4.36342 12.0724 4.67592 12.9264 5.08217 13.717L5.14467 13.6854C4.36342 14.9505 4.45717 16.5634 5.39467 17.702C7.64467 20.8962 12.4884 21.0227 12.7072 21.0227H12.8322C13.0509 21.0227 17.8947 20.8962 20.1447 17.702C21.0509 16.595 21.1759 15.0453 20.5197 13.8119C20.9572 12.958 21.2697 12.0408 21.4884 11.1236C21.5509 11.1553 21.5822 11.1869 21.6447 11.1869C22.3947 11.345 23.1759 11.4399 23.9259 11.4715C24.5822 11.5348 25.2384 11.345 25.7384 10.9023C25.9572 10.6176 26.0509 10.2697 25.9884 9.92184ZM19.4572 2.20497C19.7072 2.20497 19.9572 2.2366 20.2384 2.2366C20.8322 2.2366 21.4259 2.07847 21.9259 1.7622C21.5822 2.711 20.9572 3.53328 20.1134 4.10256C20.1134 4.10256 20.1134 4.10256 20.0822 4.13419C19.5822 3.4384 18.9884 2.80587 18.3322 2.26822C18.7072 2.17334 19.0822 2.17334 19.4572 2.20497ZM5.89467 2.2366C6.17592 2.2366 6.45717 2.20497 6.67592 2.20497C6.92592 2.20497 7.14467 2.17334 7.30092 2.17334C6.67592 2.64774 6.14467 3.21702 5.67592 3.84955C4.98842 3.3119 4.48842 2.58449 4.20717 1.7622C4.73842 2.07847 5.30092 2.2366 5.89467 2.2366ZM1.01967 10.2065L0.988417 10.08C1.42592 7.23358 3.89467 4.89322 4.61342 4.26069C4.76967 4.41883 4.92592 4.57696 5.11342 4.70346C4.30092 6.0634 3.86342 7.6131 3.86342 9.22606C3.86342 9.57395 3.89467 9.89021 3.92592 10.2381C1.64467 10.6492 1.11342 10.2697 1.01967 10.2065ZM19.3009 17.0694C17.3634 19.8526 12.8322 19.9791 12.8009 19.9791H12.7072C12.6759 19.9791 8.11342 19.8526 6.17592 17.0694C5.36342 16.2155 5.33217 14.8556 6.08217 13.9384C6.51967 13.4008 7.17592 13.0845 7.86342 13.0845C8.14467 13.0845 8.42592 13.1477 8.67592 13.2742C12.2697 15.077 16.5822 13.3691 16.7697 13.2742C17.7072 12.8947 18.7697 13.1794 19.3947 13.97C20.1134 14.9188 20.0822 16.2155 19.3009 17.0694ZM19.7697 12.9264C18.8322 12.1041 17.5197 11.8827 16.3947 12.3571C16.3634 12.3887 12.3322 13.97 9.11342 12.3887C7.98842 11.8827 6.70717 12.0724 5.76967 12.8631C5.20717 11.7245 4.92592 10.4595 4.86342 9.19443C4.86342 8.75166 4.89467 8.27726 4.98842 7.83449C6.05092 8.02425 7.11342 7.96099 8.14466 7.64473C8.92591 7.17033 9.42592 6.34804 9.45717 5.43087C9.39467 4.82997 9.55092 4.19744 9.92592 3.72304C10.4884 3.15377 10.8322 2.39473 10.8634 1.57244C11.4884 1.41431 12.1447 1.31943 12.8009 1.31943C17.1447 1.2878 20.6759 4.82997 20.7072 9.22606C20.6134 10.4911 20.3009 11.7562 19.7697 12.9264ZM24.9884 10.2065C24.8947 10.3014 24.3322 10.6809 21.8322 10.1748C21.7697 10.1748 21.7072 10.1748 21.6447 10.1748C21.6759 9.85858 21.7072 9.54232 21.7072 9.22606C21.7072 7.89774 21.3947 6.56943 20.8009 5.36762C21.5509 6.31642 23.3009 8.46702 24.7697 9.06792C24.8947 9.41581 24.9572 9.73208 25.0197 10.08C25.0197 10.1116 24.9572 10.1748 24.9884 10.2065Z" fill="#145388"/>
</svg>
