<svg width="33" height="37" viewBox="0 0 33 37" fill="none" xmlns="http://www.w3.org/2000/svg">
<g filter="url(#filter0_d)">
<circle cx="16.5" cy="16.5" r="12.5" fill="white"/>
</g>
<path d="M21.269 19.068C21.521 19.32 21.647 19.607 21.647 19.929C21.647 20.237 21.528 20.517 21.29 20.769C21.052 21.007 20.772 21.126 20.45 21.126C20.1 21.126 19.799 20.979 19.547 20.685L16.586 17.409L13.625 20.685C13.359 20.965 13.058 21.105 12.722 21.105C12.414 21.105 12.141 20.986 11.903 20.748C11.665 20.51 11.546 20.237 11.546 19.929C11.546 19.607 11.672 19.32 11.924 19.068L14.99 15.729L12.092 12.579C11.84 12.327 11.714 12.04 11.714 11.718C11.714 11.396 11.833 11.123 12.071 10.899C12.309 10.661 12.582 10.542 12.89 10.542C13.226 10.542 13.527 10.682 13.793 10.962L16.586 14.028L19.379 10.962C19.645 10.682 19.946 10.542 20.282 10.542C20.604 10.542 20.877 10.661 21.101 10.899C21.339 11.123 21.458 11.396 21.458 11.718C21.458 12.04 21.332 12.327 21.08 12.579L18.182 15.729L21.269 19.068Z" fill="#FF5555"/>
<defs>
<filter id="filter0_d" x="0" y="4" width="33" height="33" filterUnits="userSpaceOnUse" color-interpolation-filters="sRGB">
<feFlood flood-opacity="0" result="BackgroundImageFix"/>
<feColorMatrix in="SourceAlpha" type="matrix" values="0 0 0 0 0 0 0 0 0 0 0 0 0 0 0 0 0 0 127 0"/>
<feOffset dy="4"/>
<feGaussianBlur stdDeviation="2"/>
<feColorMatrix type="matrix" values="0 0 0 0 0 0 0 0 0 0 0 0 0 0 0 0 0 0 0.35 0"/>
<feBlend mode="normal" in2="BackgroundImageFix" result="effect1_dropShadow"/>
<feBlend mode="normal" in="SourceGraphic" in2="effect1_dropShadow" result="shape"/>
</filter>
</defs>
</svg>
