<svg width="20" height="20" viewBox="0 0 19 24" fill="#8f8f8f" xmlns="http://www.w3.org/2000/svg">
<path d="M12.7792 23H1.92893C0.86802 23 0 22.1375 0 21.0833V1.91667C0 0.8625 0.86802 0 1.92893 0H14.9492C16.0102 0 16.8782 0.8625 16.8782 1.91667V16.5312H15.9137V1.91667C15.9137 1.38958 15.4797 0.958333 14.9492 0.958333H1.92893C1.39848 0.958333 0.964467 1.38958 0.964467 1.91667V21.0833C0.964467 21.6104 1.39848 22.0417 1.92893 22.0417H12.7792V23Z"/>
<path d="M13.9848 4.79158H2.41119C2.12185 4.79158 1.92896 4.59992 1.92896 4.31242C1.92896 4.02492 2.12185 3.83325 2.41119 3.83325H13.9848C14.2741 3.83325 14.467 4.02492 14.467 4.31242C14.467 4.59992 14.2741 4.79158 13.9848 4.79158Z" />
<path d="M13.9848 8.58333H2.41119C2.12185 8.58333 1.92896 8.39167 1.92896 8.10417C1.92896 7.81667 2.12185 7.625 2.41119 7.625H13.9848C14.2741 7.625 14.467 7.81667 14.467 8.10417C14.467 8.39167 14.2741 8.58333 13.9848 8.58333Z" />
<path d="M10.1547 20.2931C9.23565 20.2931 8.31665 19.9887 7.55081 19.38C6.68287 18.6697 6.12126 17.7058 6.01915 16.5898C5.91703 15.4737 6.22337 14.4083 6.93815 13.5459C8.3677 11.7703 11.0226 11.4659 12.8095 12.9371C14.5965 14.3576 14.9028 16.9956 13.4222 18.7712C12.6053 19.7858 11.38 20.2931 10.1547 20.2931ZM10.1547 12.9879C10.0525 12.9879 9.95043 12.9879 9.79726 12.9879C8.98037 13.0893 8.21454 13.4952 7.65293 14.1547C7.14237 14.8142 6.88709 15.6259 6.9892 16.4376C7.09131 17.2493 7.49976 18.0102 8.16348 18.5683C9.54198 19.6336 11.5332 19.4307 12.6053 18.1117C13.6775 16.7419 13.4733 14.7634 12.1458 13.6981C11.5842 13.2415 10.8694 12.9879 10.1547 12.9879Z"/>
<path d="M17.6598 23.489C17.3535 23.489 17.0982 23.3875 16.843 23.1846L11.7885 19.1261L13.4733 17.0461L18.5278 21.1046C19.0894 21.5612 19.1405 22.3222 18.732 22.8802L18.6299 22.9817C18.4257 23.2353 18.1193 23.3875 17.762 23.4382C17.762 23.489 17.7109 23.489 17.6598 23.489ZM17.5067 22.4236C17.5577 22.4743 17.6598 22.4743 17.7109 22.4743C17.762 22.4743 17.813 22.4743 17.8641 22.3729L17.9662 22.2714C18.0683 22.17 18.0172 22.0178 17.9151 21.9163L13.6265 18.4666L13.218 18.9739L17.5067 22.4236Z" />
</svg>
